<?xml version="1.0" standalone="no"?>
<!DOCTYPE svg PUBLIC "-//W3C//DTD SVG 20010904//EN"
 "http://www.w3.org/TR/2001/REC-SVG-20010904/DTD/svg10.dtd">
<svg version="1.0" xmlns="http://www.w3.org/2000/svg"
 width="500.000000pt" height="500.000000pt" viewBox="0 0 500.000000 500.000000"
 preserveAspectRatio="xMidYMid meet">
<metadata>
Created by potrace 1.14, written by Peter Selinger 2001-2017
</metadata>
<g transform="translate(0.000000,500.000000) scale(0.100000,-0.100000)"
fill="#000000" stroke="none">
<path d="M3455 4532 c-110 -58 -129 -70 -231 -148 -202 -156 -377 -393 -459
-622 -53 -150 -59 -188 -60 -372 0 -154 3 -185 23 -256 26 -89 101 -249 117
-248 16 1 120 159 174 264 60 115 132 291 157 379 10 36 19 60 22 53 6 -19
-68 -269 -115 -387 -51 -127 -122 -265 -182 -349 l-41 -59 0 -176 c0 -101 4
-171 9 -165 5 5 18 35 30 67 56 153 149 298 286 447 187 202 287 388 331 617
14 70 17 125 13 268 -8 366 -5 618 10 673 7 29 12 55 10 57 -2 2 -45 -18 -94
-43z m-248 -924 c-3 -8 -6 -5 -6 6 -1 11 2 17 5 13 3 -3 4 -12 1 -19z"/>
<path d="M1108 2913 l-3 -777 -50 -18 c-27 -10 -69 -25 -93 -34 -127 -47 -324
-219 -425 -370 -54 -83 -154 -268 -199 -369 -99 -225 -210 -423 -283 -504
l-37 -40 28 -7 c36 -9 273 2 349 16 193 36 416 126 571 230 112 75 268 236
332 339 54 88 105 202 117 261 7 34 6 34 -66 -40 -138 -141 -280 -246 -448
-329 -98 -50 -118 -50 -28 -1 184 99 412 298 522 454 l48 68 -6 567 -7 566
298 -300 c164 -165 500 -505 747 -755 247 -250 446 -446 442 -435 -3 11 -22
65 -41 120 -38 108 -66 255 -66 349 0 55 -3 62 -42 105 -37 41 -266 277 -868
896 -160 164 -264 271 -635 653 -71 72 -134 132 -142 132 -10 0 -13 -143 -15
-777z"/>
<path d="M3896 3240 c-521 -82 -897 -453 -1003 -989 -21 -108 -24 -383 -4
-491 57 -319 248 -620 496 -785 226 -149 433 -209 725 -208 179 0 302 21 449
78 88 33 236 109 246 125 4 7 -116 274 -129 288 -2 2 -40 -17 -83 -42 -96 -56
-255 -114 -334 -123 l-58 -6 5 39 c16 109 72 228 145 304 65 68 25 65 -50 -4
l-34 -31 27 48 c36 63 27 71 -15 13 -18 -25 -34 -46 -35 -46 -2 0 3 19 12 42
8 22 12 43 10 45 -6 6 -22 -26 -52 -100 l-25 -62 7 50 c7 61 55 187 89 238 14
20 21 37 16 37 -13 0 -64 -67 -95 -125 -27 -52 -27 -49 -1 69 8 38 14 71 11
73 -6 6 -56 -124 -71 -186 l-13 -56 -1 118 c-1 71 -5 117 -11 117 -6 0 -10
-31 -10 -74 0 -40 -3 -95 -7 -122 l-6 -49 -14 65 c-13 64 -52 174 -59 167 -2
-2 4 -37 15 -78 10 -41 21 -101 24 -134 l6 -60 -23 61 c-27 74 -66 142 -96
169 -18 16 -16 9 9 -30 49 -77 81 -193 87 -310 5 -93 4 -98 -10 -75 -39 63
-77 184 -83 263 -7 83 -19 79 -23 -8 l-2 -40 -16 50 c-18 61 -27 46 -13 -27 5
-29 8 -54 6 -56 -1 -1 -17 21 -36 50 -41 67 -38 62 -45 55 -4 -3 3 -23 15 -43
12 -20 29 -53 37 -73 l15 -36 -43 43 c-58 59 -94 76 -43 21 23 -24 50 -55 60
-68 l20 -25 -35 26 c-42 31 -94 58 -111 58 -7 0 7 -13 32 -28 62 -40 112 -99
148 -175 41 -85 40 -98 -1 -91 -73 14 -217 67 -282 106 -140 82 -267 229 -335
385 -61 141 -75 218 -75 413 0 148 4 187 22 255 46 166 136 319 258 436 127
121 251 188 410 221 120 24 276 20 395 -11 72 -18 253 -101 311 -142 l27 -20
20 47 c12 26 21 48 21 50 0 2 21 50 46 105 37 84 43 104 32 115 -44 43 -279
137 -423 169 -84 19 -365 28 -449 15z"/>
<path d="M4035 1864 c-150 -30 -170 -38 -223 -88 -38 -35 -62 -76 -62 -105 0
-12 -22 -36 -57 -63 -126 -95 -172 -232 -93 -273 35 -18 75 -19 115 -1 29 13
28 13 -21 8 -60 -5 -71 5 -50 46 31 61 131 129 231 158 l60 17 -63 17 c-78 21
-86 29 -66 58 39 56 155 86 334 86 90 0 141 -5 182 -17 134 -41 141 -109 14
-133 -45 -8 -57 -24 -19 -24 35 0 122 -40 147 -68 30 -34 14 -52 -46 -53 -51
-1 -52 -1 -21 -11 17 -6 48 -7 67 -4 67 13 71 73 11 144 -34 39 -34 40 -19 71
45 90 -45 187 -207 226 -59 14 -166 18 -214 9z"/>
</g>
</svg>
