<?xml version="1.0" standalone="no"?>
<!DOCTYPE svg PUBLIC "-//W3C//DTD SVG 20010904//EN"
 "http://www.w3.org/TR/2001/REC-SVG-20010904/DTD/svg10.dtd">
<svg version="1.0" xmlns="http://www.w3.org/2000/svg"
 width="3291.000000pt" height="3291.000000pt" viewBox="0 0 3291.000000 3291.000000"
 preserveAspectRatio="xMidYMid meet">
<metadata>
Created by potrace 1.14, written by Peter Selinger 2001-2017
</metadata>
<g transform="translate(0.000000,3291.000000) scale(0.100000,-0.100000)"
fill="#000000" stroke="none">
<path d="M19635 26012 c-133 -58 -378 -185 -505 -262 -107 -65 -314 -204 -375
-252 -71 -56 -243 -194 -251 -202 -7 -6 -63 -58 -125 -116 -432 -399 -813
-924 -1029 -1420 -23 -52 -45 -104 -51 -115 -5 -11 -24 -60 -42 -110 -90 -239
-157 -496 -192 -735 -4 -25 -8 -52 -10 -60 -1 -8 -6 -53 -10 -100 -4 -47 -9
-96 -11 -110 -4 -34 -4 -374 0 -430 8 -93 17 -177 26 -230 5 -30 12 -73 15
-95 4 -22 8 -44 9 -50 1 -5 8 -37 15 -70 7 -33 20 -85 28 -115 8 -30 18 -68
22 -85 56 -215 286 -717 326 -711 13 2 59 58 138 167 10 13 49 71 87 129 39
58 73 110 78 115 10 13 116 192 162 274 62 111 196 372 230 451 18 41 46 104
62 140 17 36 39 88 50 115 10 28 25 64 33 82 8 17 15 34 15 38 0 4 6 21 14 38
28 62 154 427 193 557 70 240 137 498 158 613 4 21 9 36 12 34 2 -3 -5 -58
-16 -123 -11 -66 -23 -137 -26 -159 -4 -22 -9 -53 -12 -70 -12 -76 -86 -410
-109 -495 -14 -52 -28 -103 -29 -112 -17 -85 -134 -458 -204 -650 -186 -506
-462 -1043 -707 -1375 l-54 -73 0 -542 c0 -298 3 -539 6 -535 4 3 23 55 44
114 83 240 214 518 347 741 173 289 337 502 588 761 166 172 148 152 236 256
360 426 620 928 759 1460 11 44 23 94 26 110 3 17 11 57 19 90 7 33 16 80 20
105 3 25 10 72 15 105 33 219 39 570 15 905 -3 41 -8 127 -11 190 -3 63 -7
135 -9 160 -16 264 -20 402 -20 680 0 277 7 482 20 549 1 9 6 41 9 71 10 73
42 231 65 313 10 37 18 67 17 66 0 0 -28 -12 -61 -27z"/>
<path d="M12069 23232 c0 -15 -1 -1111 -2 -2437 l-2 -2409 -35 -9 c-88 -23
-335 -110 -430 -152 -419 -184 -723 -413 -1085 -819 -43 -48 -160 -201 -228
-299 -160 -230 -292 -459 -466 -807 -116 -233 -149 -303 -274 -575 -209 -453
-384 -802 -481 -955 -75 -118 -187 -282 -228 -334 -27 -34 -57 -71 -66 -82 -9
-12 -43 -49 -74 -83 -32 -34 -52 -62 -45 -62 6 -1 21 -3 32 -4 99 -14 444 -20
595 -10 121 7 289 23 330 30 14 2 45 7 70 10 192 25 501 95 720 164 334 105
603 223 933 410 131 74 406 262 507 347 403 339 672 652 873 1019 141 257 242
502 292 715 12 48 12 52 -1 36 -48 -67 -320 -348 -450 -466 -146 -133 -368
-308 -566 -446 -83 -58 -282 -184 -292 -184 -3 0 -29 -15 -58 -34 -85 -53
-431 -219 -583 -279 -169 -67 -344 -124 -525 -172 -74 -19 -141 -38 -147 -40
-7 -2 -13 -1 -13 3 0 4 48 22 108 40 599 187 1121 471 1612 876 224 186 469
429 655 651 77 92 250 321 287 380 l25 40 -4 900 c-8 2099 -9 2695 -4 2695 3
0 68 -65 146 -144 77 -79 372 -378 655 -665 283 -287 603 -611 710 -720 107
-110 434 -441 727 -737 292 -297 604 -613 693 -704 89 -91 410 -416 713 -722
302 -307 657 -667 789 -800 l238 -243 -36 85 c-138 327 -244 702 -289 1025 -3
22 -8 51 -10 65 -3 14 -8 52 -11 85 -4 33 -8 74 -10 90 -5 43 -16 250 -18 317
l-1 57 -241 248 c-133 136 -286 294 -340 350 -55 56 -162 167 -239 246 -77 79
-257 264 -400 411 -143 147 -303 312 -355 365 -52 54 -216 223 -365 376 -148
153 -304 312 -345 355 -147 150 -606 623 -689 708 -79 82 -552 569 -706 727
-38 40 -187 193 -330 340 -143 147 -307 316 -365 375 -125 129 -544 560 -722
744 -91 94 -134 131 -153 133 -21 1 -25 -3 -26 -25z m-1724 -7932 c-11 -5 -29
-8 -40 -8 -16 0 -15 2 5 8 34 11 60 11 35 0z"/>
<path d="M21187 21874 c-1 -1 -56 -5 -122 -8 -66 -4 -136 -9 -155 -11 -100
-12 -135 -17 -245 -35 -179 -29 -283 -53 -450 -102 -92 -26 -306 -104 -373
-134 -29 -13 -55 -24 -58 -24 -11 0 -277 -137 -364 -187 -389 -228 -749 -547
-1032 -913 -61 -79 -228 -324 -228 -334 0 -2 -18 -34 -40 -70 -44 -72 -193
-369 -205 -407 -4 -13 -16 -42 -26 -64 -17 -37 -71 -183 -104 -280 -78 -230
-151 -575 -181 -855 -3 -30 -7 -70 -9 -88 -21 -177 -21 -717 0 -843 2 -13 7
-51 10 -84 28 -272 123 -675 215 -910 126 -322 222 -514 373 -750 62 -95 209
-300 227 -315 3 -3 15 -18 27 -33 47 -60 133 -155 238 -260 275 -275 581 -491
948 -671 85 -42 158 -76 161 -76 3 0 25 -9 49 -19 167 -77 558 -195 742 -225
17 -3 71 -12 120 -20 50 -8 115 -18 145 -21 30 -3 66 -8 80 -10 23 -4 114 -12
235 -21 84 -7 466 -6 545 0 136 12 247 23 301 32 14 2 41 6 60 8 192 25 644
146 824 221 184 76 484 223 577 281 20 13 40 24 42 24 2 0 28 16 57 35 29 19
57 36 62 38 8 2 -8 39 -151 337 -30 63 -70 149 -90 190 -112 239 -183 380
-191 380 -5 0 -12 -4 -15 -9 -5 -8 -95 -71 -138 -96 -135 -80 -206 -118 -326
-176 -78 -38 -148 -69 -155 -69 -7 0 -17 -4 -22 -9 -14 -12 -185 -76 -270
-100 -161 -47 -323 -79 -482 -96 l-61 -7 4 54 c2 29 6 69 8 88 3 19 8 53 11
75 3 22 12 67 20 100 9 33 18 70 21 83 2 13 22 69 43 125 96 252 202 417 391
610 109 110 110 116 3 67 -107 -49 -191 -117 -291 -235 -23 -27 -42 -45 -42
-40 0 6 45 89 100 184 55 96 98 176 96 178 -6 6 -98 -100 -150 -175 -47 -67
-79 -122 -125 -210 -31 -58 -16 0 49 193 38 115 67 211 65 214 -7 6 -5 9 -62
-119 -92 -205 -127 -306 -197 -565 -6 -22 2 157 8 190 2 11 7 40 10 65 39 283
162 617 316 855 l51 80 -73 -75 c-126 -129 -204 -248 -280 -430 -20 -47 -41
-102 -48 -122 -6 -21 -16 -38 -21 -38 -6 0 -8 8 -5 18 3 9 7 28 10 42 2 14 11
57 20 95 9 39 18 81 20 95 3 14 10 45 17 70 6 25 13 56 15 70 3 14 19 85 35
159 16 73 28 135 26 137 -5 6 -60 -114 -101 -222 -49 -129 -91 -270 -130 -436
-19 -79 -35 -138 -36 -133 -1 6 -3 64 -5 130 -12 526 -17 680 -21 684 -13 13
-14 -3 -29 -334 -3 -66 -8 -154 -10 -195 -2 -41 -7 -138 -11 -215 -8 -190 -10
-215 -18 -222 -3 -3 -6 11 -7 33 0 21 -2 48 -5 59 -2 11 -6 40 -9 65 -4 25 -8
56 -11 70 -2 14 -7 41 -10 60 -27 179 -88 385 -159 538 -47 100 -71 133 -41
56 35 -89 92 -312 112 -440 3 -20 7 -44 9 -53 2 -9 6 -44 10 -76 4 -33 8 -71
10 -85 2 -14 7 -65 10 -115 3 -49 8 -112 10 -139 7 -71 -3 -51 -29 61 -66 281
-181 522 -341 714 -49 59 -53 47 -7 -21 146 -218 241 -472 281 -760 7 -47 15
-98 17 -115 11 -65 14 -465 4 -465 -6 0 -10 5 -10 10 0 6 -11 27 -23 48 -49
77 -157 302 -157 325 0 7 -4 17 -9 22 -11 12 -65 187 -85 278 -23 97 -31 184
-31 325 0 67 -3 122 -6 122 -4 0 -15 -42 -25 -92 -17 -91 -23 -266 -10 -333
35 -183 10 -135 -54 100 -5 17 -25 84 -45 150 -35 120 -35 120 -30 55 3 -36 8
-90 11 -120 6 -58 33 -176 81 -355 2 -11 -61 83 -141 210 -81 126 -151 234
-156 239 -25 25 -12 -10 52 -144 39 -80 95 -197 125 -260 30 -63 58 -119 61
-125 3 -5 -19 17 -49 50 -121 135 -334 325 -364 325 -5 0 26 -35 70 -79 136
-133 213 -224 305 -361 l43 -65 -84 81 c-91 86 -198 163 -290 207 -61 30 -170
69 -176 64 -1 -2 27 -19 63 -37 260 -130 489 -414 597 -740 51 -152 52 -160
26 -160 -33 0 -264 48 -361 75 -90 26 -211 67 -263 90 -16 7 -61 27 -100 43
-219 95 -446 239 -650 412 -63 53 -240 238 -302 315 -286 354 -491 819 -579
1305 -2 14 -6 34 -9 45 -2 12 -9 61 -14 110 -6 50 -14 119 -18 155 -10 86 -10
503 0 608 24 270 90 567 169 767 11 28 24 59 28 70 90 229 251 519 382 690
183 237 404 454 623 611 289 208 693 385 1000 439 230 40 324 49 520 49 367 0
669 -56 975 -179 225 -91 566 -266 728 -373 29 -19 55 -33 57 -31 2 2 22 47
44 99 23 52 46 104 51 115 5 11 62 142 126 290 64 149 131 304 150 346 19 42
34 81 34 87 0 11 -69 55 -175 112 -79 43 -253 130 -259 130 -2 0 -33 13 -68
29 -207 96 -646 243 -797 267 -14 2 -37 7 -51 10 -14 3 -36 8 -50 10 -108 19
-141 24 -185 29 -27 3 -61 8 -75 10 -108 17 -306 28 -513 29 -98 1 -179 1
-180 0z"/>
<path d="M21329 17546 c-2 -2 -35 -6 -73 -10 -38 -4 -79 -9 -90 -11 -12 -2
-34 -6 -51 -9 -196 -27 -373 -90 -512 -183 -68 -45 -176 -153 -209 -208 -37
-64 -60 -133 -63 -190 -1 -27 -4 -57 -7 -66 -2 -9 -55 -50 -117 -92 -115 -77
-169 -119 -220 -172 -115 -118 -179 -220 -222 -356 -61 -192 -27 -312 105
-371 35 -16 67 -21 140 -21 52 0 106 2 120 5 63 15 86 21 95 28 6 4 23 10 39
14 15 4 27 9 24 11 -2 2 -23 0 -46 -6 -143 -32 -247 -26 -282 15 -39 48 13
160 125 271 132 132 251 212 446 299 55 24 229 80 279 90 14 3 39 9 55 15 22
7 25 10 10 11 -161 12 -374 76 -414 124 -41 49 55 174 179 233 150 71 361 121
640 149 68 7 449 7 510 0 25 -3 72 -8 105 -12 33 -3 69 -8 80 -10 11 -3 41 -9
67 -14 196 -39 396 -151 413 -232 24 -105 -62 -170 -308 -233 -70 -17 -129
-34 -132 -36 -2 -3 24 -5 58 -6 101 -3 263 -62 382 -138 68 -43 152 -120 170
-155 40 -76 -81 -134 -253 -120 -34 3 -62 2 -62 -2 0 -5 8 -8 18 -9 9 0 26 -2
37 -5 11 -2 64 -5 117 -6 86 -1 102 2 151 26 66 32 88 74 82 156 -7 90 -63
192 -157 282 -44 43 -84 78 -89 78 -12 0 -12 27 0 32 20 7 80 123 87 167 12
77 11 94 -6 158 -63 230 -361 419 -780 494 -59 10 -432 23 -441 15z"/>
<path d="M22268 16163 c6 -2 18 -2 25 0 6 3 1 5 -13 5 -14 0 -19 -2 -12 -5z"/>
<path d="M7789 12876 c-2 -2 -29 -7 -59 -10 -30 -4 -80 -13 -110 -21 -30 -8
-66 -16 -80 -19 -14 -2 -56 -16 -95 -31 -409 -155 -712 -465 -845 -864 -72
-219 -91 -495 -50 -736 77 -452 378 -845 785 -1025 39 -17 79 -35 90 -40 30
-14 185 -57 230 -64 22 -4 54 -9 70 -11 17 -3 46 -8 65 -10 45 -6 299 -7 308
-2 4 3 36 8 72 11 130 14 271 57 425 131 353 170 616 485 721 864 23 83 29
111 44 226 9 65 6 368 -5 425 -12 66 -45 205 -56 235 -114 313 -286 537 -549
712 -160 107 -360 186 -555 218 -46 8 -399 18 -406 11z m396 -524 c287 -78
494 -287 571 -575 44 -163 52 -390 20 -552 -75 -376 -342 -639 -691 -680 -300
-36 -557 45 -736 232 -105 109 -172 233 -215 398 -22 85 -26 123 -28 255 -1
195 5 248 49 390 72 234 264 435 487 509 125 42 182 49 338 46 93 -3 157 -10
205 -23z"/>
<path d="M20708 12864 c-96 -14 -239 -59 -320 -100 -191 -97 -328 -251 -387
-434 -31 -96 -32 -104 -36 -231 -6 -227 46 -378 177 -512 145 -147 250 -195
808 -367 205 -64 293 -109 368 -190 62 -67 86 -186 57 -286 -38 -130 -137
-211 -292 -237 -275 -48 -482 72 -525 303 l-11 55 -297 0 -298 0 4 -50 c8
-141 61 -291 138 -395 44 -59 128 -140 193 -186 58 -42 195 -111 258 -130 62
-19 165 -44 203 -49 26 -3 63 -8 82 -10 53 -7 269 -6 320 1 274 38 485 143
632 315 84 98 157 259 174 381 31 226 -19 439 -133 569 -144 163 -272 234
-623 344 -382 120 -478 160 -560 233 -70 62 -94 118 -94 217 0 92 24 158 77
213 136 143 462 131 607 -21 40 -41 76 -111 85 -164 l7 -43 304 0 304 0 0 34
c0 74 -41 213 -91 310 -35 66 -31 61 -94 134 -180 211 -458 316 -819 311 -72
-1 -170 -8 -218 -15z"/>
<path d="M3104 12835 c-1 -5 -2 -631 -1 -1390 l2 -1380 275 0 275 0 5 949 5
949 125 -189 c232 -352 640 -969 650 -984 6 -8 116 -175 245 -370 l235 -355
267 -1 c148 0 273 1 279 3 8 3 11 395 11 1391 l0 1387 -276 0 -276 0 -5 -949
-5 -950 -185 279 c-101 154 -276 420 -389 590 -458 694 -674 1020 -678 1025
-9 10 -555 6 -559 -5z"/>
<path d="M10507 12842 l-87 -3 2 -1387 3 -1387 265 -1 c146 0 270 2 276 4 8 2
11 151 11 540 l0 537 133 0 133 0 16 -30 c18 -34 84 -152 114 -205 60 -104
145 -255 232 -410 54 -96 105 -186 114 -200 8 -14 25 -43 37 -65 12 -22 39
-69 60 -105 l39 -65 318 0 c174 0 317 3 317 7 0 3 -64 114 -141 245 -78 131
-153 258 -167 283 -20 36 -88 151 -141 240 -131 218 -201 344 -194 349 4 4 33
15 63 26 133 44 275 135 347 222 21 24 44 51 51 58 6 8 12 18 12 23 0 6 4 12
9 14 21 8 104 200 116 271 28 150 25 276 -9 410 -98 386 -446 619 -934 626
-253 4 -912 6 -995 3z m1087 -477 c155 -36 235 -111 284 -264 19 -58 9 -237
-16 -302 -40 -101 -139 -187 -247 -213 -16 -5 -39 -10 -50 -13 -11 -3 -145 -6
-299 -7 -230 -2 -279 0 -284 12 -2 8 -5 191 -6 408 l-1 395 280 -1 c199 -1
297 -5 339 -15z"/>
<path d="M13498 12842 l-38 -3 0 -224 0 -223 359 0 c197 1 363 -2 368 -5 7 -4
10 -394 9 -1162 -1 -762 2 -1156 9 -1158 9 -3 533 -1 545 2 3 0 5 523 5 1161
l0 1160 50 1 c28 0 194 1 370 2 l320 2 0 223 1 222 -141 0 c-77 0 -518 2 -980
3 -462 1 -857 1 -877 -1z"/>
<path d="M16557 12842 c-9 -2 -17 -9 -18 -15 -3 -37 -3 -2725 -1 -2742 3 -20
10 -20 275 -19 150 1 274 2 277 3 3 0 5 265 5 588 l0 588 593 0 c589 1 592 1
593 -20 0 -11 1 -267 0 -570 0 -302 2 -559 4 -570 4 -20 12 -20 277 -20 l273
0 3 1388 2 1387 -40 0 c-22 0 -101 1 -175 1 -74 0 -182 -1 -239 -1 l-103 0 0
-567 1 -568 -595 -3 -595 -2 1 570 0 570 -60 0 c-33 1 -150 2 -261 3 -110 1
-208 1 -217 -1z"/>
<path d="M23109 12842 l-26 -3 0 -1387 0 -1387 279 0 278 0 0 1387 0 1388 -87
0 c-49 0 -162 2 -253 3 -91 1 -177 1 -191 -1z"/>
<path d="M24940 12840 l-115 -5 1 -1375 c1 -756 2 -1380 3 -1385 1 -10 1099
-12 1166 -2 17 3 56 8 88 12 123 14 360 86 462 141 98 52 183 104 218 134 6 6
23 20 37 31 58 49 78 68 128 124 113 124 201 277 256 445 56 171 71 279 71
500 0 180 -10 264 -47 405 -71 267 -216 496 -421 660 -78 63 -211 145 -287
178 -102 43 -233 86 -310 100 -14 3 -41 8 -60 12 -65 12 -94 15 -215 21 -156
8 -827 10 -975 4z m950 -474 c239 -19 419 -96 559 -239 159 -163 236 -376 240
-667 6 -439 -192 -752 -549 -868 -122 -40 -212 -50 -492 -51 l-267 -2 0 915 1
915 71 3 c99 4 358 1 437 -6z"/>
<path d="M28320 12840 c-4 -3 -7 -628 -7 -1390 l2 -1385 805 0 805 0 0 215 c1
118 -1 221 -3 228 -3 9 -118 12 -528 12 l-524 0 2 367 3 368 460 -1 c253 0
462 3 465 7 3 4 5 103 5 221 l0 213 -460 2 c-253 0 -463 2 -468 2 -4 1 -6 157
-5 347 l3 347 524 1 525 1 0 218 c1 121 -1 222 -4 226 -6 8 -1587 9 -1600 1z"/>
<path d="M10572 9089 c-301 -36 -503 -283 -488 -596 19 -371 339 -605 710
-518 162 37 301 154 359 302 l17 43 -131 -2 c-129 -1 -130 -1 -144 -27 -31
-60 -111 -116 -181 -126 -76 -12 -100 -11 -161 5 -117 32 -195 114 -229 243
-13 48 -12 176 0 232 10 43 56 122 91 157 110 109 314 118 426 19 24 -21 50
-50 58 -63 13 -25 15 -25 137 -26 144 0 141 -2 92 89 -55 104 -147 185 -261
230 -60 24 -58 24 -117 32 -83 12 -115 13 -178 6z"/>
<path d="M20925 9088 c-289 -37 -502 -291 -489 -583 4 -95 20 -157 60 -240
118 -243 409 -364 684 -284 106 31 216 108 282 197 40 54 83 141 93 187 3 14
8 37 11 53 3 15 6 63 7 107 3 353 -291 608 -648 563z m161 -203 c149 -25 257
-174 256 -354 0 -94 -8 -128 -42 -198 -68 -138 -211 -201 -377 -167 -156 32
-254 168 -256 355 -2 202 104 339 284 367 52 8 69 8 135 -3z"/>
<path d="M11610 8702 c1 -464 8 -501 105 -610 193 -215 625 -165 746 85 44 91
48 136 49 530 l0 373 -113 0 -113 0 0 -366 c1 -396 -3 -435 -55 -491 -77 -83
-269 -83 -340 -1 -51 60 -52 68 -55 468 -1 206 -3 378 -3 383 -1 4 -51 7 -111
7 l-110 0 0 -378z"/>
<path d="M12979 9028 c0 -58 0 -1011 1 -1043 0 -20 6 -20 283 -19 155 1 288 2
295 3 8 1 12 25 12 86 0 61 -4 85 -12 86 -7 1 -89 2 -183 3 l-170 1 -2 460
c-1 253 -2 463 -2 468 -1 4 -50 7 -111 7 l-110 0 -1 -52z"/>
<path d="M13909 9073 c-1 -5 -2 -45 -3 -90 l-2 -83 148 0 c112 0 148 -3 148
-12 1 -7 2 -218 3 -468 l2 -454 108 -1 c66 0 107 3 108 10 1 5 3 210 4 455 1
245 3 451 4 457 1 9 37 12 142 12 77 -1 142 1 145 3 4 4 7 129 5 166 -1 9 -89
12 -406 12 -223 0 -406 -3 -406 -7z"/>
<path d="M15139 9073 c-4 -43 -1 -1092 4 -1099 5 -10 204 -11 213 -1 4 4 8
876 5 1075 l-1 32 -110 0 c-60 0 -110 -3 -111 -7z"/>
<path d="M15750 9075 c0 -2 25 -73 56 -157 31 -84 81 -220 111 -303 30 -82 58
-159 63 -170 4 -11 17 -45 28 -75 11 -30 45 -122 75 -205 30 -82 58 -160 62
-172 7 -26 2 -25 148 -27 113 -1 147 5 147 26 0 7 19 63 41 123 23 61 56 151
74 200 18 50 52 142 75 205 23 63 57 158 76 210 19 52 38 104 44 115 12 26 80
220 80 229 0 4 -53 5 -117 4 l-118 -3 -12 -35 c-6 -19 -53 -154 -103 -300 -50
-146 -112 -326 -137 -400 -25 -74 -47 -136 -48 -138 -3 -3 -32 78 -181 511
l-127 367 -118 0 c-66 0 -119 -2 -119 -5z"/>
<path d="M17506 8948 c-26 -73 -90 -252 -143 -398 -52 -146 -105 -294 -118
-330 -13 -36 -37 -104 -55 -152 -17 -49 -29 -91 -27 -96 7 -11 215 -8 226 4 4
5 23 53 41 106 l33 98 221 -3 221 -2 34 -100 c19 -55 36 -102 38 -104 5 -7
224 -7 228 0 5 7 -16 67 -237 681 l-153 428 -131 0 -131 0 -47 -132z m259
-363 c41 -120 73 -220 71 -222 -2 -3 -72 -5 -155 -6 -110 -1 -151 1 -151 10 0
6 14 51 31 100 30 86 106 305 115 332 2 8 6 12 9 9 2 -2 38 -102 80 -223z"/>
<path d="M18559 9070 c0 -5 0 -32 0 -60 0 -27 0 -63 0 -80 l1 -29 148 -3 147
-3 0 -455 c0 -250 3 -460 7 -465 3 -6 50 -10 110 -10 l103 0 2 385 c1 212 2
422 3 467 l0 83 93 -1 c50 0 117 0 147 0 l56 1 -1 88 -1 87 -407 3 c-269 1
-407 -1 -408 -8z"/>
<path d="M19790 8525 c0 -305 3 -555 8 -556 53 -6 205 -2 211 6 4 5 7 255 7
555 l-1 545 -113 3 -112 3 0 -556z"/>
<path d="M21995 8523 l0 -558 100 0 c55 -1 105 1 112 3 9 3 12 80 12 305 0
166 1 336 1 377 l0 75 253 -380 252 -380 108 0 c59 0 108 2 108 5 1 3 2 254 3
558 l2 552 -112 0 -111 0 1 -380 c1 -209 0 -380 -1 -380 -2 0 -116 171 -254
380 l-252 380 -111 0 -112 0 1 -557z"/>
</g>
</svg>
